<svg xmlns="http://www.w3.org/2000/svg" width="110" height="93.099" viewBox="0 0 110 93.099">
  <g id="Group_480" data-name="Group 480" transform="translate(-133 -230.482)">
    <g id="Group_475" data-name="Group 475" transform="translate(16.659 46.659)">
      <g id="Group_476" data-name="Group 476">
        <g id="Group_474" data-name="Group 474" transform="translate(158.819 199.039)" opacity="0.8">
          <g id="Group_470" data-name="Group 470" transform="translate(0 8.431)">
            <path id="Path_1470" data-name="Path 1470" d="M1029.383,221.817s11.735-16.275,24.85,0" transform="translate(-1029.383 -214.584)" fill="none" stroke="#4b4f5f" stroke-linecap="round" stroke-width="2"/>
            <path id="Path_1471" data-name="Path 1471" d="M1029.383,214.583s11.735,16.275,24.85,0" transform="translate(-1029.383 -207.416)" fill="none" stroke="#4b4f5f" stroke-linecap="round" stroke-width="2"/>
            <circle id="Ellipse_49" data-name="Ellipse 49" cx="3.892" cy="3.892" r="3.892" transform="translate(8.521 2.846)" fill="#4b4f5f"/>
          </g>
          <g id="Group_471" data-name="Group 471" transform="translate(12.566)">
            <line id="Line_55" data-name="Line 55" y2="4.365" fill="none" stroke="#4b4f5f" stroke-linecap="round" stroke-width="2"/>
            <line id="Line_56" data-name="Line 56" y2="4.365" transform="translate(0 27.53)" fill="none" stroke="#4b4f5f" stroke-linecap="round" stroke-width="2"/>
          </g>
          <g id="Group_472" data-name="Group 472" transform="translate(24.85 3.664) rotate(45)">
            <line id="Line_55-2" data-name="Line 55" y2="4.365" transform="translate(0 0)" fill="none" stroke="#4b4f5f" stroke-linecap="round" stroke-width="2"/>
            <line id="Line_56-2" data-name="Line 56" y2="4.365" transform="translate(0 30.379)" fill="none" stroke="#4b4f5f" stroke-linecap="round" stroke-width="2"/>
          </g>
          <g id="Group_473" data-name="Group 473" transform="translate(24.85 28.231) rotate(135)">
            <line id="Line_55-3" data-name="Line 55" y1="4.365" transform="translate(0 30.379)" fill="none" stroke="#4b4f5f" stroke-linecap="round" stroke-width="2"/>
            <line id="Line_56-3" data-name="Line 56" y1="4.365" transform="translate(0 0)" fill="none" stroke="#4b4f5f" stroke-linecap="round" stroke-width="2"/>
          </g>
        </g>
      </g>
    </g>
    <g id="Group_479" data-name="Group 479" transform="translate(23.097 114.352)">
      <g id="Rectangle_201" data-name="Rectangle 201" transform="translate(109.903 116.13)" fill="none" stroke="#6e727e" stroke-width="3">
        <rect width="110" height="73" rx="10" stroke="none"/>
        <rect x="1.5" y="1.5" width="107" height="70" rx="8.5" fill="none"/>
      </g>
      <g id="Group_479-2" data-name="Group 479" transform="translate(113.699 170.25)">
        <rect id="Rectangle_202" data-name="Rectangle 202" width="106" height="3" transform="translate(-1.796 1.88)" fill="#6e727e"/>
        <g id="Ellipse_50" data-name="Ellipse 50" transform="translate(48.204 7.88)" fill="#6e727e" stroke="#6e727e" stroke-width="1">
          <circle cx="2" cy="2" r="2" stroke="none"/>
          <circle cx="2" cy="2" r="1.5" fill="none"/>
        </g>
        <path id="Path_1473" data-name="Path 1473" d="M1038.03,250.586s11.448,1.179,11.824-5.536,0-14.069,0-14.069H1068V245.05s.185,5.524,11.158,5.536C1079.022,250.667,1038.03,250.586,1038.03,250.586Z" transform="translate(-1007.517 -213.211)" fill="none" stroke="#6e727e" stroke-width="3"/>
      </g>
    </g>
  </g>
</svg>
