<svg xmlns="http://www.w3.org/2000/svg" width="13" height="13" viewBox="0 0 13 13">
  <path id="information" d="M260.119,358.43a.495.495,0,0,1-.485-.59l.7-3.534-.383.216a.495.495,0,1,1-.486-.862l1.319-.743a.495.495,0,0,1,.728.526l-.721,3.662.591-.258a.495.495,0,1,1,.4.907l-1.457.634A.494.494,0,0,1,260.119,358.43Zm1.4-6.749a.7.7,0,1,0-.5.208A.71.71,0,0,0,261.523,351.681ZM267,354.5a6.5,6.5,0,1,0-6.5,6.5A6.507,6.507,0,0,0,267,354.5Zm-1.13,0a5.37,5.37,0,1,1-5.37-5.369A5.376,5.376,0,0,1,265.87,354.5Z" transform="translate(-254 -348)" fill="#959cb1"/>
</svg>
